<mxfile host="app.diagrams.net" agent="Mozilla/5.0 (Windows NT 10.0; Win64; x64) AppleWebKit/537.36 (KHTML, like Gecko) Chrome/131.0.0.0 Safari/537.36" version="25.0.3">
  <diagram id="C5RBs43oDa-KdzZeNtuy" name="Page-1">
    <mxGraphModel dx="762" dy="522" grid="1" gridSize="10" guides="1" tooltips="1" connect="1" arrows="1" fold="1" page="1" pageScale="1" pageWidth="827" pageHeight="1169" math="0" shadow="0">
      <root>
        <mxCell id="WIyWlLk6GJQsqaUBKTNV-0" />
        <mxCell id="WIyWlLk6GJQsqaUBKTNV-1" parent="WIyWlLk6GJQsqaUBKTNV-0" />
        <mxCell id="oLL3joqQmKySPIu5dNyn-2" style="edgeStyle=orthogonalEdgeStyle;rounded=0;orthogonalLoop=1;jettySize=auto;html=1;entryX=0.5;entryY=0;entryDx=0;entryDy=0;" edge="1" parent="WIyWlLk6GJQsqaUBKTNV-1" source="oLL3joqQmKySPIu5dNyn-0" target="oLL3joqQmKySPIu5dNyn-1">
          <mxGeometry relative="1" as="geometry" />
        </mxCell>
        <mxCell id="oLL3joqQmKySPIu5dNyn-0" value="Start" style="ellipse;whiteSpace=wrap;html=1;" vertex="1" parent="WIyWlLk6GJQsqaUBKTNV-1">
          <mxGeometry x="280" y="30" width="120" height="80" as="geometry" />
        </mxCell>
        <mxCell id="oLL3joqQmKySPIu5dNyn-4" style="edgeStyle=orthogonalEdgeStyle;rounded=0;orthogonalLoop=1;jettySize=auto;html=1;entryX=0.5;entryY=0;entryDx=0;entryDy=0;" edge="1" parent="WIyWlLk6GJQsqaUBKTNV-1" source="oLL3joqQmKySPIu5dNyn-1" target="oLL3joqQmKySPIu5dNyn-3">
          <mxGeometry relative="1" as="geometry" />
        </mxCell>
        <mxCell id="oLL3joqQmKySPIu5dNyn-1" value="nhap n" style="shape=parallelogram;perimeter=parallelogramPerimeter;whiteSpace=wrap;html=1;fixedSize=1;" vertex="1" parent="WIyWlLk6GJQsqaUBKTNV-1">
          <mxGeometry x="280" y="160" width="120" height="60" as="geometry" />
        </mxCell>
        <mxCell id="oLL3joqQmKySPIu5dNyn-6" value="Yes" style="edgeStyle=orthogonalEdgeStyle;rounded=0;orthogonalLoop=1;jettySize=auto;html=1;" edge="1" parent="WIyWlLk6GJQsqaUBKTNV-1" source="oLL3joqQmKySPIu5dNyn-3" target="oLL3joqQmKySPIu5dNyn-5">
          <mxGeometry relative="1" as="geometry" />
        </mxCell>
        <mxCell id="oLL3joqQmKySPIu5dNyn-9" value="No" style="edgeStyle=orthogonalEdgeStyle;rounded=0;orthogonalLoop=1;jettySize=auto;html=1;entryX=0.5;entryY=0;entryDx=0;entryDy=0;" edge="1" parent="WIyWlLk6GJQsqaUBKTNV-1" source="oLL3joqQmKySPIu5dNyn-3" target="oLL3joqQmKySPIu5dNyn-8">
          <mxGeometry relative="1" as="geometry" />
        </mxCell>
        <mxCell id="oLL3joqQmKySPIu5dNyn-3" value="n &amp;lt; 0" style="rhombus;whiteSpace=wrap;html=1;" vertex="1" parent="WIyWlLk6GJQsqaUBKTNV-1">
          <mxGeometry x="300" y="260" width="80" height="80" as="geometry" />
        </mxCell>
        <mxCell id="oLL3joqQmKySPIu5dNyn-5" value="in thông báo lỗi" style="strokeWidth=2;html=1;shape=mxgraph.flowchart.display;whiteSpace=wrap;" vertex="1" parent="WIyWlLk6GJQsqaUBKTNV-1">
          <mxGeometry x="520" y="270" width="100" height="60" as="geometry" />
        </mxCell>
        <mxCell id="oLL3joqQmKySPIu5dNyn-8" value="bắt đầu vòng lặp i từ 1 đến n" style="rounded=1;whiteSpace=wrap;html=1;absoluteArcSize=1;arcSize=14;strokeWidth=2;" vertex="1" parent="WIyWlLk6GJQsqaUBKTNV-1">
          <mxGeometry x="200" y="430" width="280" height="70" as="geometry" />
        </mxCell>
        <mxCell id="oLL3joqQmKySPIu5dNyn-16" value="No" style="edgeStyle=orthogonalEdgeStyle;rounded=0;orthogonalLoop=1;jettySize=auto;html=1;" edge="1" parent="WIyWlLk6GJQsqaUBKTNV-1" source="oLL3joqQmKySPIu5dNyn-12" target="oLL3joqQmKySPIu5dNyn-8">
          <mxGeometry relative="1" as="geometry">
            <Array as="points">
              <mxPoint x="200" y="620" />
            </Array>
          </mxGeometry>
        </mxCell>
        <mxCell id="oLL3joqQmKySPIu5dNyn-12" value="kiểm tra n%i==0?" style="strokeWidth=2;html=1;shape=mxgraph.flowchart.decision;whiteSpace=wrap;" vertex="1" parent="WIyWlLk6GJQsqaUBKTNV-1">
          <mxGeometry x="290" y="570" width="100" height="100" as="geometry" />
        </mxCell>
        <mxCell id="oLL3joqQmKySPIu5dNyn-13" style="edgeStyle=orthogonalEdgeStyle;rounded=0;orthogonalLoop=1;jettySize=auto;html=1;entryX=0.5;entryY=0;entryDx=0;entryDy=0;entryPerimeter=0;" edge="1" parent="WIyWlLk6GJQsqaUBKTNV-1" source="oLL3joqQmKySPIu5dNyn-8" target="oLL3joqQmKySPIu5dNyn-12">
          <mxGeometry relative="1" as="geometry" />
        </mxCell>
        <mxCell id="oLL3joqQmKySPIu5dNyn-19" style="edgeStyle=orthogonalEdgeStyle;rounded=0;orthogonalLoop=1;jettySize=auto;html=1;" edge="1" parent="WIyWlLk6GJQsqaUBKTNV-1" source="oLL3joqQmKySPIu5dNyn-14" target="oLL3joqQmKySPIu5dNyn-17">
          <mxGeometry relative="1" as="geometry">
            <Array as="points">
              <mxPoint x="640" y="620" />
              <mxPoint x="640" y="490" />
            </Array>
          </mxGeometry>
        </mxCell>
        <mxCell id="oLL3joqQmKySPIu5dNyn-14" value="in i" style="strokeWidth=2;html=1;shape=mxgraph.flowchart.display;whiteSpace=wrap;" vertex="1" parent="WIyWlLk6GJQsqaUBKTNV-1">
          <mxGeometry x="490" y="590" width="100" height="60" as="geometry" />
        </mxCell>
        <mxCell id="oLL3joqQmKySPIu5dNyn-15" value="Yes" style="edgeStyle=orthogonalEdgeStyle;rounded=0;orthogonalLoop=1;jettySize=auto;html=1;entryX=0;entryY=0.5;entryDx=0;entryDy=0;entryPerimeter=0;" edge="1" parent="WIyWlLk6GJQsqaUBKTNV-1" source="oLL3joqQmKySPIu5dNyn-12" target="oLL3joqQmKySPIu5dNyn-14">
          <mxGeometry relative="1" as="geometry" />
        </mxCell>
        <mxCell id="oLL3joqQmKySPIu5dNyn-17" value="End" style="strokeWidth=2;html=1;shape=mxgraph.flowchart.start_1;whiteSpace=wrap;" vertex="1" parent="WIyWlLk6GJQsqaUBKTNV-1">
          <mxGeometry x="670" y="460" width="100" height="60" as="geometry" />
        </mxCell>
        <mxCell id="oLL3joqQmKySPIu5dNyn-18" style="edgeStyle=orthogonalEdgeStyle;rounded=0;orthogonalLoop=1;jettySize=auto;html=1;entryX=0;entryY=0.5;entryDx=0;entryDy=0;entryPerimeter=0;" edge="1" parent="WIyWlLk6GJQsqaUBKTNV-1" source="oLL3joqQmKySPIu5dNyn-5" target="oLL3joqQmKySPIu5dNyn-17">
          <mxGeometry relative="1" as="geometry" />
        </mxCell>
      </root>
    </mxGraphModel>
  </diagram>
</mxfile>
